<?xml version="1.0" encoding="UTF-8"?>
<svg id="_Слой_2" data-name="Слой 2" xmlns="http://www.w3.org/2000/svg" viewBox="0 0 2247.89 378.6">
  <g id="_Слой_1-2" data-name="Слой 1">
    <path d="m2079.57,138.71c9.21,0,17.73,4.64,22.77,12.4l23.54,36.23,30.55-30.56,10.14-10.14c.26-.26.54-.53.85-.81l.09-.08c.18-.16.37-.31.52-.45l.45-.39.14-.12c.11-.08.22-.17.33-.25l.28-.22.49-.38c.18-.13.37-.26.55-.39l.05-.03.49-.34c.2-.13.41-.26.64-.4l.44-.27.03-.02c.21-.12.42-.24.65-.36l.38-.21.1-.06c.21-.11.42-.21.64-.32l.28-.14.24-.12c.19-.09.38-.17.57-.25l.06-.02h.02s.13-.07.13-.07c.14-.06.28-.13.4-.18.13-.05.27-.1.4-.16l.22-.09c.2-.08.4-.16.57-.22l.29-.1.26-.09h.02s.02-.02.02-.02c.22-.07.43-.15.64-.21l.14-.04.41-.12c.23-.06.46-.13.7-.2h.03s.54-.13.54-.13c.23-.05.45-.11.71-.16l.6-.11c.23-.04.46-.09.69-.12l.64-.08.35-.04c.13-.02.27-.04.4-.05h.17s.58-.05.58-.05c.24-.02.47-.04.71-.05h.11c.36-.02.7-.03,1.03-.04h.15c.36,0,.75,0,1.18.03h.1s.7.06.7.06l.57.04h.19c.13.03.27.05.4.07l.35.04.63.08c.24.04.49.09.75.13l.56.1c.25.05.49.11.74.17l.51.12h.03c.24.07.47.14.69.2l.44.12.12.03c.22.07.44.15.66.22l.3.1.26.09c.2.08.41.16.62.24l.18.07c.13.05.27.1.4.15.14.06.28.13.43.19l.16.07c.2.09.41.18.58.26l.24.12.3.15c.21.11.42.21.62.31l.12.07.37.21c.22.12.43.24.63.36h.02s.46.3.46.3c.01,0,.02.01.03.02h.02s0,.01,0,.01c.2.12.39.24.58.37l.48.34.06.04c.19.13.38.26.55.38h0s.5.39.5.39l.29.23c.1.08.21.16.31.24l.15.13.42.37.54.46.08.07c.57.52,1.13,1.08,1.67,1.67l.05.06c.16.19.32.38.47.55l.37.43.13.15c.08.1.16.2.24.31l.23.29.39.5h0c.13.19.26.39.4.57v.02s.36.5.36.5c.14.21.26.42.39.62l.3.47v.02c.13.21.25.42.37.63l.21.37.07.12c.11.21.21.42.31.62l.16.31.11.23c.09.19.17.39.27.62l.06.14c.06.15.13.29.18.41.05.14.11.28.16.41l.08.2c.08.2.16.41.22.58l.09.26.11.33c.07.22.15.44.22.65l.03.12.12.43c.07.23.13.46.2.71h0s.12.55.12.55c.05.24.11.48.16.72l.11.61c.04.23.09.47.12.69l.08.63.05.37c.02.13.03.26.05.39v.18s.05.53.05.53c.02.25.04.51.06.76v.1c.03.41.03.81.03,1.17v106.51c0,14.96-12.17,27.13-27.13,27.13-9.21,0-17.73-4.64-22.77-12.4l-23.54-36.23-30.55,30.55-10.14,10.14c-.26.26-.54.53-.85.81l-.08.07c-.18.16-.37.31-.53.46l-.43.37-.15.13c-.1.08-.21.16-.31.24l-.29.23-.5.39h0c-.19.14-.38.27-.57.4l-.04.02-.48.34c-.2.13-.4.25-.6.38h0s-.03.02-.05.03h0l-.44.27-.03.02c-.2.12-.41.23-.65.36l-.38.21-.1.05c-.21.11-.42.21-.61.31l-.33.17-.22.11c-.2.09-.4.18-.63.28l-.12.05c-.15.07-.3.13-.42.18-.14.06-.28.11-.43.17l-.14.06h-.03s-.03.02-.03.02c-.2.08-.4.16-.58.22l-.25.08-.33.11c-.22.07-.44.15-.67.22l-.1.03-.44.12c-.23.07-.47.13-.68.19h-.04s-.53.13-.53.13c-.23.05-.46.11-.72.16l-.61.11c-.23.04-.46.08-.7.12-.22.03-.45.05-.67.08h0l-.34.04c-.12.02-.24.03-.36.05h-.18s-.54.05-.54.05c-.25.02-.5.04-.74.06h-.11c-.41.03-.8.04-1.17.04s-.76,0-1.17-.03h-.11c-.25-.03-.49-.05-.71-.06l-.57-.04h-.18c-.12-.03-.25-.05-.37-.06l-.37-.05-.64-.08c-.23-.04-.47-.08-.72-.13l-.59-.1c-.24-.05-.48-.11-.73-.17l-.53-.12h-.02c-.23-.06-.46-.13-.7-.2l-.43-.12-.11-.03c-.23-.07-.45-.15-.67-.22l-.33-.11-.23-.08c-.2-.08-.41-.16-.63-.24l-.15-.06c-.15-.06-.3-.11-.41-.16-.15-.06-.3-.13-.45-.2l-.11-.05-.05-.02h-.02c-.19-.09-.37-.17-.56-.26l-.22-.11-.31-.15c-.22-.11-.43-.21-.62-.31l-.12-.07-.39-.22c-.21-.12-.42-.23-.63-.35h-.02s-.48-.31-.48-.31c-.2-.12-.4-.25-.6-.38l-.48-.34-.04-.02h0c-.19-.14-.39-.27-.57-.4h-.01s-.49-.4-.49-.4l-.29-.22c-.1-.08-.21-.16-.31-.24l-.16-.14-.42-.37c-.18-.16-.36-.31-.55-.47l-.07-.06c-.31-.28-.59-.55-.84-.8-.26-.26-.53-.55-.82-.86l-.07-.08c-.16-.18-.31-.37-.47-.55l-.35-.41-.14-.16c-.08-.1-.15-.2-.23-.3l-.22-.28-.4-.52h0c-.14-.19-.27-.39-.42-.61l-.34-.48c-.13-.21-.26-.42-.4-.63l-.28-.44-.02-.03c-.12-.21-.24-.42-.35-.62l-.22-.4-.06-.1c-.11-.2-.21-.41-.32-.63l-.15-.3-.11-.22c-.09-.2-.18-.4-.28-.63l-.06-.13c-.06-.14-.13-.29-.18-.4-.05-.14-.11-.27-.16-.41l-.08-.21c-.08-.2-.16-.4-.23-.58l-.09-.26-.11-.32c-.07-.22-.15-.44-.22-.66l-.03-.12-.12-.42c-.07-.23-.13-.46-.19-.7v-.02s-.13-.53-.13-.53c-.06-.24-.11-.48-.16-.71l-.11-.62c-.04-.23-.09-.46-.12-.69l-.08-.63-.05-.37c-.02-.13-.03-.26-.05-.39v-.19s-.05-.54-.05-.54c-.02-.25-.04-.5-.06-.75v-.1c-.03-.41-.04-.81-.04-1.17v-106.51c0-14.96,12.17-27.13,27.13-27.13m106.19-35h0c-1.02,0-2.05.03-3.07.08-.49.02-.97.07-1.45.1-.52.04-1.05.07-1.57.12-.61.06-1.21.14-1.82.22-.39.05-.78.09-1.17.15-.66.1-1.31.21-1.96.33-.34.06-.68.11-1.02.18-.66.13-1.32.28-1.97.43-.33.08-.66.15-.99.23-.63.16-1.26.33-1.89.51-.35.1-.71.2-1.06.3-.58.18-1.16.37-1.74.56-.4.13-.79.26-1.19.4-.52.18-1.03.38-1.54.58-.45.17-.9.35-1.35.53-.44.18-.88.38-1.32.58-.5.22-1,.44-1.5.68-.38.18-.75.37-1.12.55-.55.27-1.09.54-1.63.83-.32.17-.64.35-.96.53-.57.32-1.14.64-1.7.98-.29.18-.58.36-.86.54-.57.35-1.14.71-1.7,1.09-.29.19-.56.39-.85.59-.54.38-1.09.75-1.62,1.15-.32.23-.62.48-.93.72-.48.37-.97.74-1.44,1.13-.41.33-.8.68-1.2,1.03-.37.32-.74.63-1.1.95-.76.69-1.5,1.39-2.23,2.12l-10.14,10.14c-11.08-17.05-30.28-28.33-52.12-28.33h0c-34.31,0-62.13,27.82-62.13,62.13v106.51h0c0,1.03.03,2.05.08,3.07.02.49.07.97.1,1.45.04.52.07,1.05.12,1.57.06.61.14,1.22.22,1.82.05.39.09.78.15,1.17.1.66.21,1.31.33,1.96.06.34.11.68.18,1.01.13.66.28,1.32.43,1.97.08.33.15.66.23.99.16.63.33,1.26.51,1.89.1.35.19.71.3,1.06.18.58.37,1.16.56,1.74.13.4.26.79.4,1.18.19.52.38,1.03.58,1.54.17.45.34.9.53,1.34.18.45.38.89.58,1.33.22.5.44,1,.68,1.5.18.38.37.75.55,1.12.27.54.54,1.09.83,1.63.17.32.36.64.54.96.32.57.64,1.13.97,1.69.18.29.36.58.54.87.35.57.71,1.13,1.08,1.69.19.29.4.57.59.85.38.54.75,1.08,1.15,1.61.24.32.49.63.73.94.37.48.74.96,1.13,1.44.34.41.69.8,1.03,1.2.32.36.62.73.95,1.09.69.76,1.39,1.5,2.12,2.23,0,0,0,0,0,0,.72.73,1.47,1.43,2.23,2.12.36.32.72.63,1.08.94.4.35.8.7,1.21,1.04.47.39.95.75,1.43,1.12.32.24.63.49.95.73.53.4,1.07.77,1.61,1.15.28.2.57.4.85.6.56.37,1.12.73,1.69,1.08.29.18.58.37.87.54.56.34,1.12.65,1.69.97.32.18.64.36.97.54.54.29,1.08.56,1.62.83.37.19.75.38,1.13.56.49.23.99.45,1.49.68.44.2.88.39,1.33.58.44.18.89.35,1.34.53.51.2,1.02.4,1.54.58.39.14.79.27,1.18.4.58.19,1.16.38,1.74.56.35.11.7.2,1.05.3.63.18,1.26.35,1.89.51.33.08.66.15.99.23.66.15,1.31.3,1.97.43.34.07.67.12,1.01.18.65.12,1.31.23,1.96.33.39.06.78.1,1.17.15.61.08,1.21.16,1.82.22.52.05,1.05.08,1.57.12.48.03.96.08,1.45.1,1.02.05,2.05.08,3.07.08h0c1.02,0,2.05-.03,3.07-.08.49-.02.97-.07,1.45-.1.52-.04,1.05-.07,1.57-.12.61-.06,1.21-.14,1.82-.22.39-.05.78-.09,1.17-.15.66-.1,1.31-.21,1.96-.33.34-.06.67-.11,1.01-.18.66-.13,1.32-.28,1.97-.43.33-.08.66-.15.99-.23.64-.16,1.26-.33,1.89-.51.35-.1.71-.19,1.06-.3.58-.18,1.16-.37,1.74-.56.4-.13.79-.26,1.19-.4.52-.19,1.03-.38,1.54-.58.45-.17.9-.34,1.34-.53.45-.19.89-.38,1.33-.58.5-.22,1-.44,1.49-.68.38-.18.75-.37,1.12-.56.54-.27,1.09-.54,1.62-.83.32-.17.64-.36.96-.54.57-.32,1.13-.64,1.69-.97.29-.18.58-.36.87-.54.57-.35,1.13-.71,1.69-1.09.29-.19.57-.4.85-.59.54-.38,1.08-.75,1.61-1.15.32-.24.63-.49.94-.73.48-.37.96-.74,1.44-1.13.41-.34.8-.69,1.2-1.03.36-.32.73-.62,1.09-.95.76-.69,1.5-1.39,2.23-2.12l10.13-10.13c11.08,17.05,30.28,28.33,52.12,28.33h0c34.31,0,62.13-27.82,62.13-62.13v-106.51h0c0-1.03-.03-2.05-.08-3.07-.02-.49-.07-.97-.1-1.45-.04-.52-.07-1.05-.12-1.57-.06-.61-.14-1.21-.22-1.82-.05-.39-.09-.78-.15-1.17-.1-.66-.21-1.31-.33-1.96-.06-.34-.11-.67-.18-1.01-.13-.66-.28-1.32-.43-1.97-.08-.33-.15-.66-.23-.99-.16-.64-.33-1.26-.51-1.89-.1-.35-.19-.7-.3-1.05-.18-.58-.37-1.16-.56-1.74-.13-.4-.26-.79-.4-1.18-.19-.52-.38-1.03-.58-1.54-.17-.45-.34-.89-.53-1.34-.19-.45-.38-.89-.58-1.33-.22-.5-.44-1-.68-1.49-.18-.38-.37-.75-.56-1.13-.27-.54-.54-1.08-.83-1.62-.17-.32-.36-.64-.54-.96-.32-.57-.64-1.13-.97-1.69-.18-.29-.36-.58-.54-.87-.35-.57-.71-1.13-1.08-1.69-.19-.29-.4-.57-.59-.85-.38-.54-.75-1.08-1.15-1.61-.24-.32-.49-.63-.73-.94-.37-.48-.74-.96-1.13-1.43-.34-.41-.69-.81-1.04-1.21-.31-.36-.62-.73-.94-1.08-1.38-1.52-2.83-2.97-4.35-4.35-.36-.33-.73-.63-1.09-.95-.4-.35-.79-.7-1.2-1.03-.47-.39-.96-.76-1.44-1.13-.31-.24-.62-.49-.94-.73-.53-.4-1.07-.77-1.61-1.15-.28-.2-.56-.4-.85-.59-.56-.37-1.12-.73-1.69-1.08-.29-.18-.58-.37-.87-.54-.56-.34-1.13-.66-1.69-.97-.32-.18-.64-.36-.96-.54-.54-.29-1.08-.56-1.63-.83-.37-.19-.74-.38-1.12-.55-.5-.23-1-.46-1.5-.68-.44-.2-.88-.39-1.33-.58-.44-.18-.89-.36-1.34-.53-.51-.2-1.02-.4-1.54-.58-.39-.14-.79-.27-1.18-.4-.58-.19-1.15-.38-1.74-.56-.35-.11-.7-.2-1.06-.3-.63-.18-1.25-.35-1.89-.51-.33-.08-.66-.15-.99-.23-.65-.15-1.31-.3-1.97-.43-.34-.07-.68-.12-1.01-.18-.65-.12-1.3-.23-1.96-.33-.39-.06-.78-.1-1.17-.15-.61-.08-1.21-.16-1.82-.22-.52-.05-1.05-.08-1.57-.12-.48-.04-.96-.08-1.45-.1-1.02-.05-2.05-.08-3.07-.08,0,0,0,0,0,0h0Z"/>
    <path d="m783.44,138.71c14.96,0,27.13,12.17,27.13,27.13s-12.17,27.13-27.13,27.13h-79.38v79.38c0,14.96-12.17,27.13-27.13,27.13s-27.13-12.17-27.13-27.13v-133.64h133.64m0-35h-168.64v168.64c0,34.31,27.82,62.13,62.13,62.13h0c34.31,0,62.13-27.82,62.13-62.13v-44.38h44.38c34.31,0,62.13-27.82,62.13-62.13s-27.82-62.13-62.13-62.13h0Z"/>
    <path d="m217.91,138.71c7.65,0,14.84,2.98,20.25,8.39,11.17,11.17,11.17,29.33,0,40.5l-32.14,32.14-65.25,65.25-65.25-65.25-32.14-32.14c-11.17-11.17-11.17-29.33,0-40.5,5.41-5.41,12.6-8.39,20.25-8.39s14.84,2.98,20.25,8.39l32.14,32.14,24.75,24.75,24.75-24.75,32.14-32.14c5.41-5.41,12.6-8.39,20.25-8.39m0-35c-16.29,0-32.57,6.21-45,18.64l-32.14,32.14-32.14-32.14c-12.43-12.43-28.71-18.64-45-18.64s-32.57,6.21-45,18.64h0c-24.85,24.85-24.85,65.14,0,90l32.14,32.14,90,90,90-90,32.14-32.14c24.85-24.85,24.85-65.14,0-90h0c-12.43-12.43-28.71-18.64-45-18.64h0Z"/>
    <path d="m445.39,138.71c44.32,0,80.39,36.06,80.39,80.39s-36.06,80.39-80.39,80.39-80.39-36.06-80.39-80.39,36.06-80.39,80.39-80.39m0-35c-63.73,0-115.39,51.66-115.39,115.39s51.66,115.39,115.39,115.39,115.39-51.66,115.39-115.39-51.66-115.39-115.39-115.39h0Z"/>
    <path d="m445.39,191.21c-15.4,0-27.89,12.48-27.89,27.89s12.48,27.89,27.89,27.89,27.89-12.48,27.89-27.89-12.48-27.89-27.89-27.89h0Z"/>
    <path d="m1863.21,138.71c44.32,0,80.39,36.06,80.39,80.39s-36.06,80.39-80.39,80.39-80.39-36.06-80.39-80.39,36.06-80.39,80.39-80.39m0-35c-63.73,0-115.39,51.66-115.39,115.39s51.66,115.39,115.39,115.39,115.39-51.66,115.39-115.39-51.66-115.39-115.39-115.39h0Z"/>
    <path d="m1863.21,191.21c-15.4,0-27.89,12.48-27.89,27.89s12.48,27.89,27.89,27.89,27.89-12.48,27.89-27.89-12.48-27.89-27.89-27.89h0Z"/>
    <path d="m1593.6,138.71c17.61,0,34.33,5.58,48.33,16.15,13.58,10.25,23.75,24.79,28.63,40.96l.55,1.81.74,1.74c1.41,3.33,2.13,6.89,2.13,10.58v106.51c0,14.96-12.17,27.13-27.13,27.13h-106.51c-14.96,0-27.13-12.17-27.13-27.13,0-8.29,3.56-14.17,6.55-17.65l16.05-18.68-12.17-21.42c-6.82-12.01-10.43-25.71-10.43-39.62,0-44.32,36.06-80.39,80.39-80.39m0-35c-63.73,0-115.39,51.66-115.39,115.39,0,20.7,5.45,40.12,15,56.92-9.34,10.87-15,25-15,40.46h0c0,34.31,27.82,62.13,62.13,62.13h106.51c34.31,0,62.13-27.82,62.13-62.13v-106.51c0-8.6-1.75-16.8-4.91-24.25-14.32-47.44-58.36-82-110.47-82h0Z"/>
    <path d="m1593.6,191.21c-15.4,0-27.89,12.48-27.89,27.89s12.48,27.89,27.89,27.89,27.89-12.48,27.89-27.89-12.48-27.89-27.89-27.89h0Z"/>
    <path d="m959.36,35c14.96,0,27.13,12.17,27.13,27.13v79.38h79.38c4.98,0,9.84,1.35,14.04,3.9.37.23.74.46,1.11.71,1.44.97,2.8,2.1,4.03,3.33.31.31.62.64.91.96,1.77,1.95,3.25,4.13,4.38,6.49,1.76,3.66,2.66,7.61,2.66,11.74,0,3.23-.55,6.36-1.64,9.33-1.94,5.31-5.62,9.99-10.36,13.19-.35.24-.72.48-1.09.7-4.21,2.56-9.06,3.91-14.04,3.91h-79.38v79.38c0,14.96-12.17,27.13-27.13,27.13s-27.13-12.17-27.13-27.13V62.13c0-14.96,12.17-27.13,27.13-27.13m0-35h0c-34.31,0-62.13,27.82-62.13,62.13v168.64h0v44.38c0,34.31,27.82,62.13,62.13,62.13h0c34.31,0,62.13-27.82,62.13-62.13v-44.38h44.38c11.8,0,22.82-3.29,32.22-9,.85-.52,1.69-1.06,2.52-1.62,10.74-7.26,19.09-17.79,23.62-30.16,2.44-6.66,3.77-13.86,3.77-21.36,0-9.65-2.2-18.79-6.13-26.94-2.62-5.43-6-10.43-10.01-14.84-.67-.74-1.35-1.45-2.06-2.16-2.81-2.81-5.89-5.35-9.2-7.59-.83-.56-1.67-1.1-2.52-1.62-9.39-5.71-20.42-8.99-32.22-8.99h-44.38v-44.38c0-34.31-27.82-62.13-62.13-62.13h0Z"/>
    <path d="m1235.1,138.71c1.75,0,3.5.17,5.22.5.43.08.86.18,1.28.28,4.78,1.17,9.17,3.65,12.69,7.17l31.38,31.38,24.75,24.75,24.75-24.75,31.38-31.38c5.12-5.12,11.94-7.95,19.18-7.95s14.06,2.82,19.18,7.95c10.58,10.58,10.58,27.79,0,38.37l-31.38,31.38-87.87,87.87-31.38,31.38c-5.12,5.12-11.94,7.95-19.18,7.95s-14.06-2.82-19.18-7.95c-5.12-5.12-7.95-11.94-7.95-19.18s2.82-14.06,7.95-19.18l31.38-31.38,24.75-24.75-24.75-24.75-31.38-31.38c-3.52-3.52-6-7.91-7.17-12.69-.1-.42-.2-.85-.28-1.28-1.09-5.6-.37-11.52,2.01-16.64,1.33-2.87,3.16-5.47,5.44-7.75,2.92-2.92,6.35-5.08,10.18-6.42,2.47-.86,5.06-1.36,7.69-1.49.44-.02.88-.03,1.31-.03m0-35c-.99,0-1.99.02-2.98.07-5.96.28-11.88,1.42-17.57,3.41-8.54,2.99-16.55,7.89-23.38,14.71h0c-5.31,5.31-9.45,11.34-12.44,17.77-5.54,11.95-7.08,25.3-4.62,38.03.19.98.4,1.95.64,2.93,2.61,10.68,8.08,20.8,16.42,29.14l31.38,31.38-31.38,31.38c-24.26,24.26-24.26,63.6,0,87.87h0c12.13,12.13,28.03,18.2,43.93,18.2s31.8-6.07,43.93-18.2l31.38-31.38,87.87-87.87,31.38-31.38c24.26-24.26,24.26-63.6,0-87.87-12.13-12.13-28.03-18.2-43.93-18.2s-31.8,6.07-43.93,18.2l-31.38,31.38-31.38-31.38c-8.34-8.34-18.46-13.81-29.14-16.42-.97-.24-1.95-.45-2.93-.64-3.92-.76-7.89-1.14-11.87-1.14h0Z"/>
  </g>
</svg>
